<svg width="56.693" height="56.693" xmlns="http://www.w3.org/2000/svg">

 <g>
  <title>background</title>
  <rect fill="none" id="canvas_background" height="402" width="582" y="-1" x="-1"/>
 </g>
 <g>
  <title>Layer 1</title>
  <path fill="#ffffff" id="svg_1" d="m40.43,21.739l-7.645,0l0,-5.014c0,-1.883 1.248001,-2.322001 2.126999,-2.322001c0.877003,0 5.395,0 5.395,0l0,-8.278l-7.43,-0.029c-8.247999,0 -10.124998,6.174 -10.124998,10.125l0,5.518l-4.77,0l0,8.529999l4.77,0c0,10.947001 0,24.136999 0,24.136999l10.032999,0c0,0 0,-13.32 0,-24.136999l6.77,0l0.875,-8.529999z"/>
 </g>
</svg>