<svg width="56.693" height="56.693" xmlns="http://www.w3.org/2000/svg">

 <g>
  <title>background</title>
  <rect fill="none" id="canvas_background" height="402" width="582" y="-1" x="-1"/>
 </g>
 <g>
  <title>Layer 1</title>
  <path fill="#ffffff" id="svg_1" d="m43.414001,4.831l-30.414001,0c-5.283,0 -9.581,4.297 -9.581,9.58l0,10.12l0,20.295c0,5.283001 4.298,9.579998 9.581,9.579998l30.415001,0c5.283001,0 9.579998,-4.296997 9.579998,-9.579998l0,-20.296l0,-10.120001c-0.000999,-5.283 -4.298,-9.579 -9.580997,-9.579zm2.747997,5.713l1.096001,-0.004l0,1.091l0,7.312001l-8.375,0.026999l-0.028999,-8.401999l7.307999,-0.024zm-25.030998,13.986001c1.587999,-2.197001 4.164,-3.638 7.076,-3.638s5.487999,1.441 7.073997,3.638c1.033001,1.434 1.652,3.188 1.652,5.087999c0,4.811001 -3.917999,8.724998 -8.726999,8.724998c-4.812,0 -8.726,-3.913998 -8.726,-8.724998c0.001001,-1.9 0.618,-3.653999 1.651001,-5.087999zm27.033001,20.295c0,2.620998 -2.131001,4.75 -4.75,4.75l-30.414001,0c-2.62,0 -4.751,-2.129002 -4.751,-4.75l0,-20.295l7.400001,0c-0.639,1.571999 -0.998,3.289 -0.998,5.087999c0,7.473 6.080001,13.556999 13.556001,13.556999c7.474998,0 13.555,-6.084 13.555,-13.556999c0,-1.799 -0.361,-3.516001 -1,-5.087999l7.402,0l0,20.295z"/>
 </g>
</svg>