<svg width="56.693" height="56.693" xmlns="http://www.w3.org/2000/svg">

 <g>
  <title>background</title>
  <rect fill="none" id="canvas_background" height="402" width="582" y="-1" x="-1"/>
 </g>
 <g>
  <title>Layer 1</title>
  <path fill="#ffffff" id="svg_1" d="m52.837002,15.065c-1.811001,0.805 -3.760002,1.348001 -5.805,1.591001c2.087997,-1.25 3.688999,-3.23 4.444,-5.592c-1.953003,1.158999 -4.115002,2 -6.418003,2.454c-1.842999,-1.964 -4.469997,-3.191999 -7.376999,-3.191999c-5.581001,0 -10.105999,4.525 -10.105999,10.107c0,0.791 0.088999,1.562 0.261999,2.302999c-8.4,-0.422001 -15.848,-4.445 -20.833,-10.56c-0.87,1.492001 -1.368,3.228001 -1.368,5.082c0,3.506001 1.784,6.6 4.496,8.412001c-1.656,-0.052999 -3.215,-0.507999 -4.578,-1.264999c-0.001,0.042 -0.001,0.084999 -0.001,0.128c0,4.896 3.484,8.98 8.108,9.91c-0.848001,0.23 -1.741,0.354 -2.663,0.354c-0.652,0 -1.285,-0.063 -1.902,-0.181999c1.287001,4.014999 5.019,6.938 9.441001,7.018997c-3.459001,2.711002 -7.816001,4.327 -12.552001,4.327c-0.815,0 -1.62,-0.048 -2.411,-0.141998c4.474,2.868999 9.786,4.541 15.493,4.541c18.591002,0 28.756002,-15.400002 28.756002,-28.756001c0,-0.438 -0.009003,-0.875 -0.028004,-1.309c1.974003,-1.422001 3.688004,-3.203001 5.042004,-5.23z"/>
 </g>
</svg>